<mxfile host="www.draw.io" modified="2019-10-26T07:41:04.232Z" agent="Mozilla/5.0 (Macintosh; Intel Mac OS X 10_13_6) AppleWebKit/537.36 (KHTML, like Gecko) Chrome/77.0.3865.120 Safari/537.36" etag="mJfuDhHyaJv2eTritPc0" version="12.1.7" type="github" pages="1">
  <diagram id="BlIlwqBDZ2dwoWJCBVmW" name="Page-1">
    <mxGraphModel dx="772" dy="429" grid="0" gridSize="10" guides="1" tooltips="1" connect="1" arrows="1" fold="1" page="0" pageScale="1" pageWidth="827" pageHeight="1169" math="0" shadow="0">
      <root>
        <mxCell id="0"/>
        <mxCell id="1" parent="0"/>
        <mxCell id="ehZDFXviFSveSP2z2rJo-3" value="now&amp;gt;nextFreeTicketTime" style="rhombus;whiteSpace=wrap;html=1;" vertex="1" parent="1">
          <mxGeometry x="152" y="92" width="200" height="63" as="geometry"/>
        </mxCell>
        <mxCell id="ehZDFXviFSveSP2z2rJo-4" value="根据上述时间差，在桶中&lt;br&gt;增加对应令牌数目" style="rounded=0;whiteSpace=wrap;html=1;" vertex="1" parent="1">
          <mxGeometry x="176" y="186" width="152" height="55" as="geometry"/>
        </mxCell>
        <mxCell id="ehZDFXviFSveSP2z2rJo-5" value="更新最近发令牌时间&lt;br&gt;nextFreeTicketTime=now" style="rounded=0;whiteSpace=wrap;html=1;" vertex="1" parent="1">
          <mxGeometry x="176" y="256" width="152" height="55" as="geometry"/>
        </mxCell>
        <mxCell id="ehZDFXviFSveSP2z2rJo-6" value="发令牌的过程通过sync同步" style="text;html=1;resizable=0;points=[];autosize=1;align=left;verticalAlign=top;spacingTop=-4;" vertex="1" parent="1">
          <mxGeometry x="173" y="32" width="155" height="14" as="geometry"/>
        </mxCell>
      </root>
    </mxGraphModel>
  </diagram>
</mxfile>
